<mxfile host="app.diagrams.net" modified="2023-12-05T09:53:52.238Z" agent="Mozilla/5.0 (X11; Linux x86_64; rv:109.0) Gecko/20100101 Firefox/115.0" etag="7nKzR94ZI0ndZ7A5kYnR" version="22.1.5" type="device" pages="3">
  <diagram name="Page-1" id="D5wRtIgZ7IvthTdzi_ns">
    <mxGraphModel dx="3776" dy="2271" grid="1" gridSize="10" guides="1" tooltips="1" connect="1" arrows="1" fold="1" page="1" pageScale="1" pageWidth="1169" pageHeight="827" math="0" shadow="0">
      <root>
        <mxCell id="0" />
        <mxCell id="1" parent="0" />
        <mxCell id="LgPCA8ZGiJ-3fSPAvRXA-6" style="edgeStyle=none;shape=connector;rounded=0;orthogonalLoop=1;jettySize=auto;html=1;exitX=0.25;exitY=1;exitDx=0;exitDy=0;entryX=0.5;entryY=0;entryDx=0;entryDy=0;labelBackgroundColor=default;strokeColor=default;align=center;verticalAlign=middle;fontFamily=Helvetica;fontSize=11;fontColor=default;endArrow=classic;" parent="1" source="LgPCA8ZGiJ-3fSPAvRXA-1" target="LgPCA8ZGiJ-3fSPAvRXA-3" edge="1">
          <mxGeometry relative="1" as="geometry" />
        </mxCell>
        <mxCell id="LgPCA8ZGiJ-3fSPAvRXA-7" style="edgeStyle=none;shape=connector;rounded=0;orthogonalLoop=1;jettySize=auto;html=1;exitX=0.75;exitY=1;exitDx=0;exitDy=0;entryX=0.5;entryY=0;entryDx=0;entryDy=0;labelBackgroundColor=default;strokeColor=default;align=center;verticalAlign=middle;fontFamily=Helvetica;fontSize=11;fontColor=default;endArrow=classic;" parent="1" source="LgPCA8ZGiJ-3fSPAvRXA-1" target="LgPCA8ZGiJ-3fSPAvRXA-4" edge="1">
          <mxGeometry relative="1" as="geometry" />
        </mxCell>
        <mxCell id="LgPCA8ZGiJ-3fSPAvRXA-1" value="Device" style="rounded=0;whiteSpace=wrap;html=1;" parent="1" vertex="1">
          <mxGeometry x="500" y="100" width="120" height="60" as="geometry" />
        </mxCell>
        <mxCell id="LgPCA8ZGiJ-3fSPAvRXA-11" style="edgeStyle=none;shape=connector;rounded=0;orthogonalLoop=1;jettySize=auto;html=1;exitX=0.25;exitY=1;exitDx=0;exitDy=0;labelBackgroundColor=default;strokeColor=default;align=center;verticalAlign=middle;fontFamily=Helvetica;fontSize=11;fontColor=default;endArrow=classic;" parent="1" source="LgPCA8ZGiJ-3fSPAvRXA-2" target="LgPCA8ZGiJ-3fSPAvRXA-9" edge="1">
          <mxGeometry relative="1" as="geometry" />
        </mxCell>
        <mxCell id="LgPCA8ZGiJ-3fSPAvRXA-12" style="edgeStyle=none;shape=connector;rounded=0;orthogonalLoop=1;jettySize=auto;html=1;exitX=0.5;exitY=1;exitDx=0;exitDy=0;entryX=0.5;entryY=0;entryDx=0;entryDy=0;labelBackgroundColor=default;strokeColor=default;align=center;verticalAlign=middle;fontFamily=Helvetica;fontSize=11;fontColor=default;endArrow=classic;" parent="1" source="LgPCA8ZGiJ-3fSPAvRXA-2" target="LgPCA8ZGiJ-3fSPAvRXA-10" edge="1">
          <mxGeometry relative="1" as="geometry" />
        </mxCell>
        <mxCell id="LgPCA8ZGiJ-3fSPAvRXA-14" style="edgeStyle=none;shape=connector;rounded=0;orthogonalLoop=1;jettySize=auto;html=1;exitX=0.75;exitY=1;exitDx=0;exitDy=0;entryX=0.5;entryY=0;entryDx=0;entryDy=0;labelBackgroundColor=default;strokeColor=default;align=center;verticalAlign=middle;fontFamily=Helvetica;fontSize=11;fontColor=default;endArrow=classic;" parent="1" source="LgPCA8ZGiJ-3fSPAvRXA-2" target="LgPCA8ZGiJ-3fSPAvRXA-13" edge="1">
          <mxGeometry relative="1" as="geometry" />
        </mxCell>
        <mxCell id="LgPCA8ZGiJ-3fSPAvRXA-2" value="Camera" style="rounded=0;whiteSpace=wrap;html=1;" parent="1" vertex="1">
          <mxGeometry x="1390" y="60" width="120" height="60" as="geometry" />
        </mxCell>
        <mxCell id="LgPCA8ZGiJ-3fSPAvRXA-31" style="edgeStyle=none;shape=connector;rounded=0;orthogonalLoop=1;jettySize=auto;html=1;exitX=0.25;exitY=1;exitDx=0;exitDy=0;entryX=0.5;entryY=0;entryDx=0;entryDy=0;labelBackgroundColor=default;strokeColor=default;align=center;verticalAlign=middle;fontFamily=Helvetica;fontSize=11;fontColor=default;endArrow=classic;" parent="1" source="LgPCA8ZGiJ-3fSPAvRXA-3" target="LgPCA8ZGiJ-3fSPAvRXA-30" edge="1">
          <mxGeometry relative="1" as="geometry" />
        </mxCell>
        <mxCell id="LgPCA8ZGiJ-3fSPAvRXA-35" style="edgeStyle=none;shape=connector;rounded=0;orthogonalLoop=1;jettySize=auto;html=1;exitX=0.5;exitY=1;exitDx=0;exitDy=0;entryX=0.5;entryY=0;entryDx=0;entryDy=0;labelBackgroundColor=default;strokeColor=default;align=center;verticalAlign=middle;fontFamily=Helvetica;fontSize=11;fontColor=default;endArrow=classic;" parent="1" source="LgPCA8ZGiJ-3fSPAvRXA-3" target="LgPCA8ZGiJ-3fSPAvRXA-32" edge="1">
          <mxGeometry relative="1" as="geometry" />
        </mxCell>
        <mxCell id="LgPCA8ZGiJ-3fSPAvRXA-36" style="edgeStyle=none;shape=connector;rounded=0;orthogonalLoop=1;jettySize=auto;html=1;exitX=0.75;exitY=1;exitDx=0;exitDy=0;labelBackgroundColor=default;strokeColor=default;align=center;verticalAlign=middle;fontFamily=Helvetica;fontSize=11;fontColor=default;endArrow=classic;" parent="1" source="LgPCA8ZGiJ-3fSPAvRXA-3" target="LgPCA8ZGiJ-3fSPAvRXA-33" edge="1">
          <mxGeometry relative="1" as="geometry" />
        </mxCell>
        <mxCell id="LgPCA8ZGiJ-3fSPAvRXA-38" style="edgeStyle=none;shape=connector;rounded=0;orthogonalLoop=1;jettySize=auto;html=1;exitX=0.5;exitY=1;exitDx=0;exitDy=0;entryX=0.5;entryY=0;entryDx=0;entryDy=0;labelBackgroundColor=default;strokeColor=default;align=center;verticalAlign=middle;fontFamily=Helvetica;fontSize=11;fontColor=default;endArrow=classic;" parent="1" source="LgPCA8ZGiJ-3fSPAvRXA-3" target="LgPCA8ZGiJ-3fSPAvRXA-22" edge="1">
          <mxGeometry relative="1" as="geometry" />
        </mxCell>
        <mxCell id="LgPCA8ZGiJ-3fSPAvRXA-3" value="Scene" style="rounded=0;whiteSpace=wrap;html=1;" parent="1" vertex="1">
          <mxGeometry x="350" y="270" width="120" height="60" as="geometry" />
        </mxCell>
        <mxCell id="LgPCA8ZGiJ-3fSPAvRXA-19" style="edgeStyle=none;shape=connector;rounded=0;orthogonalLoop=1;jettySize=auto;html=1;exitX=0.25;exitY=1;exitDx=0;exitDy=0;entryX=0.5;entryY=0;entryDx=0;entryDy=0;labelBackgroundColor=default;strokeColor=default;align=center;verticalAlign=middle;fontFamily=Helvetica;fontSize=11;fontColor=default;endArrow=classic;" parent="1" source="LgPCA8ZGiJ-3fSPAvRXA-4" target="LgPCA8ZGiJ-3fSPAvRXA-17" edge="1">
          <mxGeometry relative="1" as="geometry" />
        </mxCell>
        <mxCell id="LgPCA8ZGiJ-3fSPAvRXA-20" style="edgeStyle=none;shape=connector;rounded=0;orthogonalLoop=1;jettySize=auto;html=1;exitX=0.75;exitY=1;exitDx=0;exitDy=0;entryX=0.5;entryY=0;entryDx=0;entryDy=0;labelBackgroundColor=default;strokeColor=default;align=center;verticalAlign=middle;fontFamily=Helvetica;fontSize=11;fontColor=default;endArrow=classic;" parent="1" source="LgPCA8ZGiJ-3fSPAvRXA-4" target="LgPCA8ZGiJ-3fSPAvRXA-18" edge="1">
          <mxGeometry relative="1" as="geometry" />
        </mxCell>
        <mxCell id="LgPCA8ZGiJ-3fSPAvRXA-65" style="edgeStyle=none;shape=connector;rounded=0;orthogonalLoop=1;jettySize=auto;html=1;exitX=0.5;exitY=1;exitDx=0;exitDy=0;entryX=0.5;entryY=0;entryDx=0;entryDy=0;labelBackgroundColor=default;strokeColor=default;align=center;verticalAlign=middle;fontFamily=Helvetica;fontSize=11;fontColor=default;endArrow=classic;" parent="1" source="LgPCA8ZGiJ-3fSPAvRXA-4" target="LgPCA8ZGiJ-3fSPAvRXA-64" edge="1">
          <mxGeometry relative="1" as="geometry" />
        </mxCell>
        <mxCell id="LgPCA8ZGiJ-3fSPAvRXA-4" value="Renderer" style="rounded=0;whiteSpace=wrap;html=1;" parent="1" vertex="1">
          <mxGeometry x="800" y="300" width="120" height="60" as="geometry" />
        </mxCell>
        <mxCell id="LgPCA8ZGiJ-3fSPAvRXA-9" value="Projection" style="rounded=0;whiteSpace=wrap;html=1;" parent="1" vertex="1">
          <mxGeometry x="1260" y="200" width="120" height="60" as="geometry" />
        </mxCell>
        <mxCell id="LgPCA8ZGiJ-3fSPAvRXA-10" value="View" style="rounded=0;whiteSpace=wrap;html=1;" parent="1" vertex="1">
          <mxGeometry x="1390" y="280" width="120" height="60" as="geometry" />
        </mxCell>
        <mxCell id="LgPCA8ZGiJ-3fSPAvRXA-13" value="Viewport" style="rounded=0;whiteSpace=wrap;html=1;" parent="1" vertex="1">
          <mxGeometry x="1520" y="210" width="120" height="60" as="geometry" />
        </mxCell>
        <mxCell id="LgPCA8ZGiJ-3fSPAvRXA-40" style="edgeStyle=none;shape=connector;rounded=0;orthogonalLoop=1;jettySize=auto;html=1;exitX=0.25;exitY=1;exitDx=0;exitDy=0;entryX=1;entryY=0.5;entryDx=0;entryDy=0;labelBackgroundColor=default;strokeColor=default;align=center;verticalAlign=middle;fontFamily=Helvetica;fontSize=11;fontColor=default;endArrow=classic;dashed=1;" parent="1" source="LgPCA8ZGiJ-3fSPAvRXA-17" target="LgPCA8ZGiJ-3fSPAvRXA-22" edge="1">
          <mxGeometry relative="1" as="geometry" />
        </mxCell>
        <mxCell id="LgPCA8ZGiJ-3fSPAvRXA-17" value="MeshShaders" style="rounded=0;whiteSpace=wrap;html=1;" parent="1" vertex="1">
          <mxGeometry x="670" y="440" width="120" height="60" as="geometry" />
        </mxCell>
        <mxCell id="LgPCA8ZGiJ-3fSPAvRXA-37" style="edgeStyle=none;shape=connector;rounded=0;orthogonalLoop=1;jettySize=auto;html=1;exitX=0.5;exitY=1;exitDx=0;exitDy=0;entryX=0.75;entryY=0;entryDx=0;entryDy=0;labelBackgroundColor=default;strokeColor=default;align=center;verticalAlign=middle;fontFamily=Helvetica;fontSize=11;fontColor=default;endArrow=classic;dashed=1;" parent="1" source="LgPCA8ZGiJ-3fSPAvRXA-18" target="LgPCA8ZGiJ-3fSPAvRXA-33" edge="1">
          <mxGeometry relative="1" as="geometry" />
        </mxCell>
        <mxCell id="LgPCA8ZGiJ-3fSPAvRXA-62" value="&lt;font style=&quot;font-size: 14px;&quot;&gt;count&lt;/font&gt;" style="edgeLabel;html=1;align=center;verticalAlign=middle;resizable=0;points=[];fontSize=11;fontFamily=Helvetica;fontColor=default;" parent="LgPCA8ZGiJ-3fSPAvRXA-37" vertex="1" connectable="0">
          <mxGeometry x="-0.3558" y="6" relative="1" as="geometry">
            <mxPoint x="13" y="10" as="offset" />
          </mxGeometry>
        </mxCell>
        <mxCell id="LgPCA8ZGiJ-3fSPAvRXA-18" value="Swapchain" style="rounded=0;whiteSpace=wrap;html=1;" parent="1" vertex="1">
          <mxGeometry x="1049" y="480" width="120" height="60" as="geometry" />
        </mxCell>
        <mxCell id="LgPCA8ZGiJ-3fSPAvRXA-34" style="edgeStyle=none;shape=connector;rounded=0;orthogonalLoop=1;jettySize=auto;html=1;exitX=0.25;exitY=0;exitDx=0;exitDy=0;entryX=0.5;entryY=1;entryDx=0;entryDy=0;labelBackgroundColor=default;strokeColor=default;align=center;verticalAlign=middle;fontFamily=Helvetica;fontSize=11;fontColor=default;endArrow=classic;dashed=1;" parent="1" source="LgPCA8ZGiJ-3fSPAvRXA-21" target="LgPCA8ZGiJ-3fSPAvRXA-30" edge="1">
          <mxGeometry relative="1" as="geometry" />
        </mxCell>
        <mxCell id="LgPCA8ZGiJ-3fSPAvRXA-21" value="Meshes" style="rounded=0;whiteSpace=wrap;html=1;" parent="1" vertex="1">
          <mxGeometry x="130" y="910" width="120" height="60" as="geometry" />
        </mxCell>
        <mxCell id="LgPCA8ZGiJ-3fSPAvRXA-41" style="edgeStyle=none;shape=connector;rounded=0;orthogonalLoop=1;jettySize=auto;html=1;exitX=1;exitY=0.75;exitDx=0;exitDy=0;entryX=0;entryY=0.5;entryDx=0;entryDy=0;labelBackgroundColor=default;strokeColor=default;align=center;verticalAlign=middle;fontFamily=Helvetica;fontSize=11;fontColor=default;endArrow=classic;dashed=1;" parent="1" source="LgPCA8ZGiJ-3fSPAvRXA-22" target="LgPCA8ZGiJ-3fSPAvRXA-33" edge="1">
          <mxGeometry relative="1" as="geometry" />
        </mxCell>
        <mxCell id="LgPCA8ZGiJ-3fSPAvRXA-42" style="edgeStyle=none;shape=connector;rounded=0;orthogonalLoop=1;jettySize=auto;html=1;exitX=0.75;exitY=0;exitDx=0;exitDy=0;entryX=0.5;entryY=1;entryDx=0;entryDy=0;labelBackgroundColor=default;strokeColor=default;align=center;verticalAlign=middle;fontFamily=Helvetica;fontSize=11;fontColor=default;endArrow=classic;dashed=1;" parent="1" source="LgPCA8ZGiJ-3fSPAvRXA-22" target="LgPCA8ZGiJ-3fSPAvRXA-32" edge="1">
          <mxGeometry relative="1" as="geometry" />
        </mxCell>
        <mxCell id="LgPCA8ZGiJ-3fSPAvRXA-22" value="DrawNodes" style="rounded=0;whiteSpace=wrap;html=1;" parent="1" vertex="1">
          <mxGeometry x="250" y="730" width="120" height="60" as="geometry" />
        </mxCell>
        <mxCell id="LgPCA8ZGiJ-3fSPAvRXA-24" style="edgeStyle=none;shape=connector;rounded=0;orthogonalLoop=1;jettySize=auto;html=1;exitX=0.25;exitY=0;exitDx=0;exitDy=0;entryX=0.5;entryY=1;entryDx=0;entryDy=0;labelBackgroundColor=default;strokeColor=default;align=center;verticalAlign=middle;fontFamily=Helvetica;fontSize=11;fontColor=default;endArrow=classic;" parent="1" source="LgPCA8ZGiJ-3fSPAvRXA-23" target="LgPCA8ZGiJ-3fSPAvRXA-21" edge="1">
          <mxGeometry relative="1" as="geometry" />
        </mxCell>
        <mxCell id="LgPCA8ZGiJ-3fSPAvRXA-25" style="edgeStyle=none;shape=connector;rounded=0;orthogonalLoop=1;jettySize=auto;html=1;exitX=0.75;exitY=0;exitDx=0;exitDy=0;entryX=0.5;entryY=1;entryDx=0;entryDy=0;labelBackgroundColor=default;strokeColor=default;align=center;verticalAlign=middle;fontFamily=Helvetica;fontSize=11;fontColor=default;endArrow=classic;" parent="1" source="LgPCA8ZGiJ-3fSPAvRXA-23" target="LgPCA8ZGiJ-3fSPAvRXA-50" edge="1">
          <mxGeometry relative="1" as="geometry" />
        </mxCell>
        <mxCell id="LgPCA8ZGiJ-3fSPAvRXA-23" value="Resources" style="rounded=0;whiteSpace=wrap;html=1;" parent="1" vertex="1">
          <mxGeometry x="310" y="1130" width="120" height="60" as="geometry" />
        </mxCell>
        <mxCell id="LgPCA8ZGiJ-3fSPAvRXA-39" style="edgeStyle=none;shape=connector;rounded=0;orthogonalLoop=1;jettySize=auto;html=1;exitX=1;exitY=0.5;exitDx=0;exitDy=0;entryX=0;entryY=0.5;entryDx=0;entryDy=0;labelBackgroundColor=default;strokeColor=default;align=center;verticalAlign=middle;fontFamily=Helvetica;fontSize=11;fontColor=default;endArrow=classic;dashed=1;" parent="1" source="LgPCA8ZGiJ-3fSPAvRXA-30" target="LgPCA8ZGiJ-3fSPAvRXA-22" edge="1">
          <mxGeometry relative="1" as="geometry" />
        </mxCell>
        <mxCell id="LgPCA8ZGiJ-3fSPAvRXA-30" value="MeshBuffer" style="rounded=0;whiteSpace=wrap;html=1;" parent="1" vertex="1">
          <mxGeometry x="32.5" y="640" width="120" height="60" as="geometry" />
        </mxCell>
        <mxCell id="LgPCA8ZGiJ-3fSPAvRXA-32" value="UniformBuffer" style="rounded=0;whiteSpace=wrap;html=1;" parent="1" vertex="1">
          <mxGeometry x="420" y="520" width="120" height="60" as="geometry" />
        </mxCell>
        <mxCell id="LgPCA8ZGiJ-3fSPAvRXA-33" value="IndicesBuffer" style="rounded=0;whiteSpace=wrap;html=1;" parent="1" vertex="1">
          <mxGeometry x="750" y="780" width="120" height="60" as="geometry" />
        </mxCell>
        <mxCell id="LgPCA8ZGiJ-3fSPAvRXA-43" value="&lt;div&gt;&lt;font style=&quot;font-size: 15px;&quot;&gt;Render(in: Scene, in: Cameras)&lt;/font&gt;&lt;/div&gt;&lt;div align=&quot;left&quot;&gt;&lt;font style=&quot;font-size: 15px;&quot;&gt;for(camera : Cameras)&lt;/font&gt;&lt;/div&gt;&lt;div align=&quot;left&quot;&gt;&lt;font style=&quot;font-size: 15px;&quot;&gt;&lt;span style=&quot;white-space: pre;&quot;&gt;&#x9;&lt;/span&gt;Scene.Render(RenderObjects, camera)&lt;/font&gt;&lt;/div&gt;&lt;div align=&quot;left&quot;&gt;&lt;font style=&quot;font-size: 15px;&quot;&gt;&lt;br&gt;&lt;/font&gt;&lt;/div&gt;&lt;div align=&quot;left&quot;&gt;&lt;font style=&quot;font-size: 15px;&quot;&gt;for(mesh_vis_shader : MeshVisualShaders)&lt;/font&gt;&lt;/div&gt;&lt;div align=&quot;left&quot;&gt;&lt;font style=&quot;font-size: 15px;&quot;&gt;&lt;span style=&quot;white-space: pre;&quot;&gt;&#x9;&lt;/span&gt;mesh_vis_shader.Render();&lt;br&gt;&lt;/font&gt;&lt;/div&gt;&lt;div align=&quot;left&quot;&gt;&lt;font style=&quot;font-size: 15px;&quot;&gt;&lt;br&gt;&lt;/font&gt;&lt;/div&gt;&lt;div align=&quot;left&quot;&gt;&lt;font style=&quot;font-size: 15px;&quot;&gt;Swapchain.Present();&lt;br&gt;&lt;/font&gt;&lt;/div&gt;" style="shape=callout;whiteSpace=wrap;html=1;perimeter=calloutPerimeter;fontFamily=Helvetica;fontSize=11;fontColor=default;" parent="1" vertex="1">
          <mxGeometry x="900" y="-20" width="320" height="250" as="geometry" />
        </mxCell>
        <mxCell id="LgPCA8ZGiJ-3fSPAvRXA-44" style="edgeStyle=none;shape=connector;rounded=0;orthogonalLoop=1;jettySize=auto;html=1;exitX=1;exitY=0.5;exitDx=0;exitDy=0;entryX=0;entryY=0;entryDx=160;entryDy=250;entryPerimeter=0;labelBackgroundColor=default;strokeColor=default;align=center;verticalAlign=middle;fontFamily=Helvetica;fontSize=11;fontColor=default;endArrow=none;endFill=0;dashed=1;dashPattern=12 12;" parent="1" source="LgPCA8ZGiJ-3fSPAvRXA-4" target="LgPCA8ZGiJ-3fSPAvRXA-43" edge="1">
          <mxGeometry relative="1" as="geometry" />
        </mxCell>
        <mxCell id="LgPCA8ZGiJ-3fSPAvRXA-45" value="&lt;div&gt;&lt;font style=&quot;font-size: 15px;&quot;&gt;Render(in: RenderObjects, in: Cameras)&lt;/font&gt;&lt;/div&gt;&lt;div align=&quot;left&quot;&gt;&lt;font style=&quot;font-size: 15px;&quot;&gt;for(shader : UsedShaders)&lt;/font&gt;&lt;/div&gt;&lt;div align=&quot;left&quot;&gt;&lt;font style=&quot;font-size: 15px;&quot;&gt;{&lt;/font&gt;&lt;/div&gt;&lt;div align=&quot;left&quot;&gt;&lt;font style=&quot;font-size: 15px;&quot;&gt;&lt;span style=&quot;white-space: pre;&quot;&gt;&#x9;&lt;/span&gt;shader.dind();&lt;/font&gt;&lt;/div&gt;&lt;div align=&quot;left&quot;&gt;&lt;font style=&quot;font-size: 15px;&quot;&gt;&lt;span style=&quot;white-space: pre;&quot;&gt;&#x9;&lt;/span&gt;for(mesh : UsedMeshesInShader)&lt;/font&gt;&lt;/div&gt;&lt;div align=&quot;left&quot;&gt;&lt;font style=&quot;font-size: 15px;&quot;&gt;&lt;span style=&quot;white-space: pre;&quot;&gt;&#x9;&lt;/span&gt;{&lt;/font&gt;&lt;/div&gt;&lt;div align=&quot;left&quot;&gt;&lt;font style=&quot;font-size: 15px;&quot;&gt;&lt;span style=&quot;white-space: pre;&quot;&gt;&#x9;&lt;/span&gt;&lt;span style=&quot;white-space: pre;&quot;&gt;&#x9;&lt;/span&gt;mesh.bind();&lt;/font&gt;&lt;/div&gt;&lt;div align=&quot;left&quot;&gt;&lt;font style=&quot;font-size: 15px;&quot;&gt;&lt;span style=&quot;white-space: pre;&quot;&gt;&#x9;&lt;/span&gt;&lt;span style=&quot;white-space: pre;&quot;&gt;&#x9;&lt;/span&gt;for(draw_node : MeshDrawNodes)&lt;/font&gt;&lt;/div&gt;&lt;div align=&quot;left&quot;&gt;&lt;font style=&quot;font-size: 15px;&quot;&gt;&lt;span style=&quot;white-space: pre;&quot;&gt;&#x9;&lt;/span&gt;&lt;span style=&quot;white-space: pre;&quot;&gt;&#x9;&lt;/span&gt;{&lt;/font&gt;&lt;/div&gt;&lt;div align=&quot;left&quot;&gt;&lt;font style=&quot;font-size: 15px;&quot;&gt;&lt;span style=&quot;white-space: pre;&quot;&gt;&#x9;&lt;/span&gt;&lt;span style=&quot;white-space: pre;&quot;&gt;&#x9;&lt;/span&gt;&lt;span style=&quot;white-space: pre;&quot;&gt;&#x9;&lt;/span&gt;draw_node.BindUniforms();&lt;/font&gt;&lt;/div&gt;&lt;div align=&quot;left&quot;&gt;&lt;font style=&quot;font-size: 15px;&quot;&gt;&lt;span style=&quot;white-space: pre;&quot;&gt;&#x9;&lt;/span&gt;&lt;span style=&quot;white-space: pre;&quot;&gt;&#x9;&lt;/span&gt;&lt;span style=&quot;white-space: pre;&quot;&gt;&#x9;&lt;/span&gt;draw_node.Render();&lt;br&gt;&lt;/font&gt;&lt;/div&gt;&lt;div align=&quot;left&quot;&gt;&lt;font style=&quot;font-size: 15px;&quot;&gt;&lt;span style=&quot;white-space: pre;&quot;&gt;&#x9;&lt;/span&gt;&lt;span style=&quot;white-space: pre;&quot;&gt;&#x9;&lt;/span&gt;}&lt;br&gt;&lt;/font&gt;&lt;/div&gt;&lt;div align=&quot;left&quot;&gt;&lt;font style=&quot;font-size: 15px;&quot;&gt;&lt;span style=&quot;white-space: pre;&quot;&gt;&#x9;&lt;/span&gt;}&lt;br&gt;&lt;/font&gt;&lt;/div&gt;&lt;div align=&quot;left&quot;&gt;&lt;font style=&quot;font-size: 15px;&quot;&gt;}&lt;br&gt;&lt;/font&gt;&lt;/div&gt;" style="shape=callout;whiteSpace=wrap;html=1;perimeter=calloutPerimeter;fontFamily=Helvetica;fontSize=11;fontColor=default;flipH=1;" parent="1" vertex="1">
          <mxGeometry x="-275" y="-60" width="450" height="330" as="geometry" />
        </mxCell>
        <mxCell id="LgPCA8ZGiJ-3fSPAvRXA-46" style="edgeStyle=none;shape=connector;rounded=0;orthogonalLoop=1;jettySize=auto;html=1;exitX=0;exitY=0.5;exitDx=0;exitDy=0;entryX=0;entryY=0;entryDx=225;entryDy=330;entryPerimeter=0;labelBackgroundColor=default;strokeColor=default;align=center;verticalAlign=middle;fontFamily=Helvetica;fontSize=11;fontColor=default;endArrow=none;endFill=0;dashed=1;dashPattern=8 8;" parent="1" source="LgPCA8ZGiJ-3fSPAvRXA-3" target="LgPCA8ZGiJ-3fSPAvRXA-45" edge="1">
          <mxGeometry relative="1" as="geometry" />
        </mxCell>
        <mxCell id="LgPCA8ZGiJ-3fSPAvRXA-51" style="edgeStyle=none;shape=connector;rounded=0;orthogonalLoop=1;jettySize=auto;html=1;exitX=0.5;exitY=0;exitDx=0;exitDy=0;entryX=0.5;entryY=1;entryDx=0;entryDy=0;labelBackgroundColor=default;strokeColor=default;align=center;verticalAlign=middle;fontFamily=Helvetica;fontSize=11;fontColor=default;endArrow=classic;dashed=1;" parent="1" source="LgPCA8ZGiJ-3fSPAvRXA-50" target="LgPCA8ZGiJ-3fSPAvRXA-17" edge="1">
          <mxGeometry relative="1" as="geometry" />
        </mxCell>
        <mxCell id="LgPCA8ZGiJ-3fSPAvRXA-50" value="ShadersCode" style="rounded=0;whiteSpace=wrap;html=1;" parent="1" vertex="1">
          <mxGeometry x="490" y="910" width="120" height="60" as="geometry" />
        </mxCell>
        <mxCell id="LgPCA8ZGiJ-3fSPAvRXA-56" style="edgeStyle=none;shape=connector;rounded=0;orthogonalLoop=1;jettySize=auto;html=1;exitX=0.5;exitY=1;exitDx=0;exitDy=0;entryX=0.25;entryY=0;entryDx=0;entryDy=0;labelBackgroundColor=default;strokeColor=default;align=center;verticalAlign=middle;fontFamily=Helvetica;fontSize=11;fontColor=default;endArrow=classic;" parent="1" source="LgPCA8ZGiJ-3fSPAvRXA-53" target="LgPCA8ZGiJ-3fSPAvRXA-55" edge="1">
          <mxGeometry relative="1" as="geometry" />
        </mxCell>
        <mxCell id="LgPCA8ZGiJ-3fSPAvRXA-53" value="UsedMeshes" style="rounded=0;whiteSpace=wrap;html=1;" parent="1" vertex="1">
          <mxGeometry x="-645" y="-60" width="120" height="60" as="geometry" />
        </mxCell>
        <mxCell id="LgPCA8ZGiJ-3fSPAvRXA-57" style="edgeStyle=none;shape=connector;rounded=0;orthogonalLoop=1;jettySize=auto;html=1;exitX=0.5;exitY=1;exitDx=0;exitDy=0;entryX=0.75;entryY=0;entryDx=0;entryDy=0;labelBackgroundColor=default;strokeColor=default;align=center;verticalAlign=middle;fontFamily=Helvetica;fontSize=11;fontColor=default;endArrow=classic;" parent="1" source="LgPCA8ZGiJ-3fSPAvRXA-54" target="LgPCA8ZGiJ-3fSPAvRXA-55" edge="1">
          <mxGeometry relative="1" as="geometry" />
        </mxCell>
        <mxCell id="LgPCA8ZGiJ-3fSPAvRXA-54" value="UsedShaders" style="rounded=0;whiteSpace=wrap;html=1;" parent="1" vertex="1">
          <mxGeometry x="-455" y="-60" width="120" height="60" as="geometry" />
        </mxCell>
        <mxCell id="LgPCA8ZGiJ-3fSPAvRXA-59" style="edgeStyle=none;shape=connector;rounded=0;orthogonalLoop=1;jettySize=auto;html=1;exitX=0.25;exitY=1;exitDx=0;exitDy=0;entryX=0.5;entryY=0;entryDx=0;entryDy=0;labelBackgroundColor=default;strokeColor=default;align=center;verticalAlign=middle;fontFamily=Helvetica;fontSize=11;fontColor=default;endArrow=classic;" parent="1" source="LgPCA8ZGiJ-3fSPAvRXA-55" target="LgPCA8ZGiJ-3fSPAvRXA-58" edge="1">
          <mxGeometry relative="1" as="geometry" />
        </mxCell>
        <mxCell id="LgPCA8ZGiJ-3fSPAvRXA-61" style="edgeStyle=none;shape=connector;rounded=0;orthogonalLoop=1;jettySize=auto;html=1;exitX=0.75;exitY=1;exitDx=0;exitDy=0;entryX=0.5;entryY=0;entryDx=0;entryDy=0;labelBackgroundColor=default;strokeColor=default;align=center;verticalAlign=middle;fontFamily=Helvetica;fontSize=11;fontColor=default;endArrow=classic;" parent="1" source="LgPCA8ZGiJ-3fSPAvRXA-55" target="LgPCA8ZGiJ-3fSPAvRXA-60" edge="1">
          <mxGeometry relative="1" as="geometry" />
        </mxCell>
        <mxCell id="LgPCA8ZGiJ-3fSPAvRXA-55" value="DrawNode" style="rounded=0;whiteSpace=wrap;html=1;" parent="1" vertex="1">
          <mxGeometry x="-545" y="70" width="120" height="60" as="geometry" />
        </mxCell>
        <mxCell id="LgPCA8ZGiJ-3fSPAvRXA-58" value="StartIndexInIndicesBuffer" style="rounded=0;whiteSpace=wrap;html=1;" parent="1" vertex="1">
          <mxGeometry x="-690" y="210" width="165" height="70" as="geometry" />
        </mxCell>
        <mxCell id="LgPCA8ZGiJ-3fSPAvRXA-60" value="InstanceCount" style="rounded=0;whiteSpace=wrap;html=1;" parent="1" vertex="1">
          <mxGeometry x="-477.5" y="210" width="165" height="70" as="geometry" />
        </mxCell>
        <mxCell id="LgPCA8ZGiJ-3fSPAvRXA-64" value="MeshVisualShaders" style="rounded=0;whiteSpace=wrap;html=1;" parent="1" vertex="1">
          <mxGeometry x="830" y="480" width="140" height="70" as="geometry" />
        </mxCell>
      </root>
    </mxGraphModel>
  </diagram>
  <diagram id="ZxZUYgYzcYj4Eh0nsHVN" name="Page-2">
    <mxGraphModel dx="3218" dy="1961" grid="1" gridSize="10" guides="1" tooltips="1" connect="1" arrows="1" fold="1" page="1" pageScale="1" pageWidth="1169" pageHeight="827" math="0" shadow="0">
      <root>
        <mxCell id="0" />
        <mxCell id="1" parent="0" />
        <mxCell id="Tb7KvKbCH8r8d90aHwrI-6" style="rounded=0;orthogonalLoop=1;jettySize=auto;html=1;exitX=0.25;exitY=1;exitDx=0;exitDy=0;" parent="1" source="Ml6-_P9c_FoS6UCr1bXp-1" target="Tb7KvKbCH8r8d90aHwrI-1" edge="1">
          <mxGeometry relative="1" as="geometry" />
        </mxCell>
        <mxCell id="Ml6-_P9c_FoS6UCr1bXp-1" value="DrawNodesTree" style="rounded=0;whiteSpace=wrap;html=1;" parent="1" vertex="1">
          <mxGeometry x="-710" y="150" width="165" height="70" as="geometry" />
        </mxCell>
        <mxCell id="y5oX978mp-i3TpPS066y-1" value="Node" style="rounded=0;whiteSpace=wrap;html=1;" parent="1" vertex="1">
          <mxGeometry x="-860" y="910" width="165" height="70" as="geometry" />
        </mxCell>
        <mxCell id="y5oX978mp-i3TpPS066y-2" value="Node" style="rounded=0;whiteSpace=wrap;html=1;" parent="1" vertex="1">
          <mxGeometry x="-1050" y="800" width="165" height="70" as="geometry" />
        </mxCell>
        <mxCell id="y5oX978mp-i3TpPS066y-3" value="Node" style="rounded=0;whiteSpace=wrap;html=1;" parent="1" vertex="1">
          <mxGeometry x="-640" y="870" width="165" height="70" as="geometry" />
        </mxCell>
        <mxCell id="Tb7KvKbCH8r8d90aHwrI-27" style="edgeStyle=none;shape=connector;rounded=0;orthogonalLoop=1;jettySize=auto;html=1;exitX=0.25;exitY=1;exitDx=0;exitDy=0;entryX=0.5;entryY=0;entryDx=0;entryDy=0;labelBackgroundColor=default;strokeColor=default;align=center;verticalAlign=middle;fontFamily=Helvetica;fontSize=11;fontColor=default;endArrow=classic;" parent="1" source="y5oX978mp-i3TpPS066y-4" target="Tb7KvKbCH8r8d90aHwrI-25" edge="1">
          <mxGeometry relative="1" as="geometry" />
        </mxCell>
        <mxCell id="Tb7KvKbCH8r8d90aHwrI-28" style="edgeStyle=none;shape=connector;rounded=0;orthogonalLoop=1;jettySize=auto;html=1;exitX=0.75;exitY=1;exitDx=0;exitDy=0;entryX=0.5;entryY=0;entryDx=0;entryDy=0;labelBackgroundColor=default;strokeColor=default;align=center;verticalAlign=middle;fontFamily=Helvetica;fontSize=11;fontColor=default;endArrow=classic;" parent="1" source="y5oX978mp-i3TpPS066y-4" target="Tb7KvKbCH8r8d90aHwrI-26" edge="1">
          <mxGeometry relative="1" as="geometry" />
        </mxCell>
        <mxCell id="y5oX978mp-i3TpPS066y-4" value="MeshShaders" style="rounded=0;whiteSpace=wrap;html=1;" parent="1" vertex="1">
          <mxGeometry x="-749" y="-250" width="165" height="70" as="geometry" />
        </mxCell>
        <mxCell id="Tb7KvKbCH8r8d90aHwrI-23" style="edgeStyle=none;shape=connector;rounded=0;orthogonalLoop=1;jettySize=auto;html=1;exitX=0.5;exitY=1;exitDx=0;exitDy=0;entryX=0.5;entryY=0;entryDx=0;entryDy=0;labelBackgroundColor=default;strokeColor=default;align=center;verticalAlign=middle;fontFamily=Helvetica;fontSize=11;fontColor=default;endArrow=classic;" parent="1" source="rXm-1U5fzkKB2WTTh2jy-1" target="Tb7KvKbCH8r8d90aHwrI-20" edge="1">
          <mxGeometry relative="1" as="geometry" />
        </mxCell>
        <mxCell id="Tb7KvKbCH8r8d90aHwrI-24" style="edgeStyle=none;shape=connector;rounded=0;orthogonalLoop=1;jettySize=auto;html=1;exitX=0.75;exitY=1;exitDx=0;exitDy=0;entryX=0.5;entryY=0;entryDx=0;entryDy=0;labelBackgroundColor=default;strokeColor=default;align=center;verticalAlign=middle;fontFamily=Helvetica;fontSize=11;fontColor=default;endArrow=classic;" parent="1" source="rXm-1U5fzkKB2WTTh2jy-1" target="Tb7KvKbCH8r8d90aHwrI-21" edge="1">
          <mxGeometry relative="1" as="geometry" />
        </mxCell>
        <mxCell id="rXm-1U5fzkKB2WTTh2jy-1" value="Meshes" style="rounded=0;whiteSpace=wrap;html=1;" parent="1" vertex="1">
          <mxGeometry x="-210" y="70" width="165" height="70" as="geometry" />
        </mxCell>
        <mxCell id="Tb7KvKbCH8r8d90aHwrI-7" style="rounded=0;orthogonalLoop=1;jettySize=auto;html=1;exitX=0.25;exitY=1;exitDx=0;exitDy=0;" parent="1" source="Tb7KvKbCH8r8d90aHwrI-1" target="Tb7KvKbCH8r8d90aHwrI-2" edge="1">
          <mxGeometry relative="1" as="geometry" />
        </mxCell>
        <mxCell id="Tb7KvKbCH8r8d90aHwrI-8" style="edgeStyle=none;shape=connector;rounded=0;orthogonalLoop=1;jettySize=auto;html=1;exitX=0.5;exitY=1;exitDx=0;exitDy=0;entryX=0.5;entryY=0;entryDx=0;entryDy=0;labelBackgroundColor=default;strokeColor=default;align=center;verticalAlign=middle;fontFamily=Helvetica;fontSize=11;fontColor=default;endArrow=classic;" parent="1" source="Tb7KvKbCH8r8d90aHwrI-1" target="Tb7KvKbCH8r8d90aHwrI-3" edge="1">
          <mxGeometry relative="1" as="geometry" />
        </mxCell>
        <mxCell id="Tb7KvKbCH8r8d90aHwrI-9" style="edgeStyle=none;shape=connector;rounded=0;orthogonalLoop=1;jettySize=auto;html=1;exitX=0.75;exitY=1;exitDx=0;exitDy=0;entryX=0.5;entryY=0;entryDx=0;entryDy=0;labelBackgroundColor=default;strokeColor=default;align=center;verticalAlign=middle;fontFamily=Helvetica;fontSize=11;fontColor=default;endArrow=classic;" parent="1" source="Tb7KvKbCH8r8d90aHwrI-1" target="Tb7KvKbCH8r8d90aHwrI-5" edge="1">
          <mxGeometry relative="1" as="geometry" />
        </mxCell>
        <mxCell id="Tb7KvKbCH8r8d90aHwrI-29" style="edgeStyle=orthogonalEdgeStyle;shape=connector;rounded=0;orthogonalLoop=1;jettySize=auto;html=1;exitX=0.25;exitY=0;exitDx=0;exitDy=0;entryX=0.5;entryY=1;entryDx=0;entryDy=0;labelBackgroundColor=default;strokeColor=default;align=center;verticalAlign=middle;fontFamily=Helvetica;fontSize=11;fontColor=default;endArrow=classic;curved=1;" parent="1" source="Tb7KvKbCH8r8d90aHwrI-1" target="Tb7KvKbCH8r8d90aHwrI-25" edge="1">
          <mxGeometry relative="1" as="geometry" />
        </mxCell>
        <mxCell id="Tb7KvKbCH8r8d90aHwrI-1" value="MeshShaderRef" style="rounded=0;whiteSpace=wrap;html=1;fillColor=#ffe6cc;strokeColor=#d79b00;" parent="1" vertex="1">
          <mxGeometry x="-870" y="320" width="165" height="70" as="geometry" />
        </mxCell>
        <mxCell id="Tb7KvKbCH8r8d90aHwrI-32" style="edgeStyle=orthogonalEdgeStyle;shape=connector;curved=1;rounded=0;orthogonalLoop=1;jettySize=auto;html=1;exitX=0.5;exitY=1;exitDx=0;exitDy=0;entryX=0.5;entryY=1;entryDx=0;entryDy=0;labelBackgroundColor=default;strokeColor=default;align=center;verticalAlign=middle;fontFamily=Helvetica;fontSize=11;fontColor=default;endArrow=classic;" parent="1" source="Tb7KvKbCH8r8d90aHwrI-2" target="Tb7KvKbCH8r8d90aHwrI-19" edge="1">
          <mxGeometry relative="1" as="geometry">
            <Array as="points">
              <mxPoint x="-1090" y="540" />
              <mxPoint x="-1090" y="1300" />
              <mxPoint x="-410" y="1300" />
              <mxPoint x="-410" y="520" />
              <mxPoint x="-302" y="520" />
            </Array>
          </mxGeometry>
        </mxCell>
        <mxCell id="Tb7KvKbCH8r8d90aHwrI-2" value="MeshRef" style="rounded=0;whiteSpace=wrap;html=1;fillColor=#dae8fc;strokeColor=#6c8ebf;" parent="1" vertex="1">
          <mxGeometry x="-1120" y="470" width="165" height="70" as="geometry" />
        </mxCell>
        <mxCell id="Tb7KvKbCH8r8d90aHwrI-16" style="edgeStyle=none;shape=connector;rounded=0;orthogonalLoop=1;jettySize=auto;html=1;exitX=0.25;exitY=1;exitDx=0;exitDy=0;entryX=0.5;entryY=0;entryDx=0;entryDy=0;labelBackgroundColor=default;strokeColor=default;align=center;verticalAlign=middle;fontFamily=Helvetica;fontSize=11;fontColor=default;endArrow=classic;" parent="1" source="Tb7KvKbCH8r8d90aHwrI-3" target="y5oX978mp-i3TpPS066y-2" edge="1">
          <mxGeometry relative="1" as="geometry" />
        </mxCell>
        <mxCell id="Tb7KvKbCH8r8d90aHwrI-17" style="edgeStyle=none;shape=connector;rounded=0;orthogonalLoop=1;jettySize=auto;html=1;exitX=0.5;exitY=1;exitDx=0;exitDy=0;entryX=0.5;entryY=0;entryDx=0;entryDy=0;labelBackgroundColor=default;strokeColor=default;align=center;verticalAlign=middle;fontFamily=Helvetica;fontSize=11;fontColor=default;endArrow=classic;" parent="1" source="Tb7KvKbCH8r8d90aHwrI-3" target="y5oX978mp-i3TpPS066y-1" edge="1">
          <mxGeometry relative="1" as="geometry" />
        </mxCell>
        <mxCell id="Tb7KvKbCH8r8d90aHwrI-18" style="edgeStyle=none;shape=connector;rounded=0;orthogonalLoop=1;jettySize=auto;html=1;exitX=0.75;exitY=1;exitDx=0;exitDy=0;entryX=0.5;entryY=0;entryDx=0;entryDy=0;labelBackgroundColor=default;strokeColor=default;align=center;verticalAlign=middle;fontFamily=Helvetica;fontSize=11;fontColor=default;endArrow=classic;" parent="1" source="Tb7KvKbCH8r8d90aHwrI-3" target="y5oX978mp-i3TpPS066y-3" edge="1">
          <mxGeometry relative="1" as="geometry" />
        </mxCell>
        <mxCell id="Tb7KvKbCH8r8d90aHwrI-31" style="edgeStyle=orthogonalEdgeStyle;shape=connector;curved=1;rounded=0;orthogonalLoop=1;jettySize=auto;html=1;exitX=1;exitY=0.5;exitDx=0;exitDy=0;entryX=0.5;entryY=1;entryDx=0;entryDy=0;labelBackgroundColor=default;strokeColor=default;align=center;verticalAlign=middle;fontFamily=Helvetica;fontSize=11;fontColor=default;endArrow=classic;" parent="1" source="Tb7KvKbCH8r8d90aHwrI-3" target="Tb7KvKbCH8r8d90aHwrI-20" edge="1">
          <mxGeometry relative="1" as="geometry" />
        </mxCell>
        <mxCell id="Tb7KvKbCH8r8d90aHwrI-3" value="MeshRef" style="rounded=0;whiteSpace=wrap;html=1;fillColor=#d5e8d4;strokeColor=#82b366;" parent="1" vertex="1">
          <mxGeometry x="-870" y="570" width="165" height="70" as="geometry" />
        </mxCell>
        <mxCell id="Tb7KvKbCH8r8d90aHwrI-30" style="edgeStyle=orthogonalEdgeStyle;shape=connector;curved=1;rounded=0;orthogonalLoop=1;jettySize=auto;html=1;exitX=0.75;exitY=1;exitDx=0;exitDy=0;entryX=0.5;entryY=1;entryDx=0;entryDy=0;labelBackgroundColor=default;strokeColor=default;align=center;verticalAlign=middle;fontFamily=Helvetica;fontSize=11;fontColor=default;endArrow=classic;" parent="1" source="Tb7KvKbCH8r8d90aHwrI-5" target="Tb7KvKbCH8r8d90aHwrI-21" edge="1">
          <mxGeometry relative="1" as="geometry">
            <Array as="points">
              <mxPoint x="-465" y="540" />
              <mxPoint x="-465" y="730" />
              <mxPoint x="82" y="730" />
            </Array>
          </mxGeometry>
        </mxCell>
        <mxCell id="Tb7KvKbCH8r8d90aHwrI-5" value="MeshRef" style="rounded=0;whiteSpace=wrap;html=1;fillColor=#f8cecc;strokeColor=#b85450;" parent="1" vertex="1">
          <mxGeometry x="-630" y="470" width="165" height="70" as="geometry" />
        </mxCell>
        <mxCell id="Tb7KvKbCH8r8d90aHwrI-19" value="Mesh" style="rounded=0;whiteSpace=wrap;html=1;fillColor=#dae8fc;strokeColor=#6c8ebf;" parent="1" vertex="1">
          <mxGeometry x="-385" y="344" width="165" height="70" as="geometry" />
        </mxCell>
        <mxCell id="Tb7KvKbCH8r8d90aHwrI-20" value="Mesh" style="rounded=0;whiteSpace=wrap;html=1;fillColor=#d5e8d4;strokeColor=#82b366;" parent="1" vertex="1">
          <mxGeometry x="-175" y="480" width="165" height="70" as="geometry" />
        </mxCell>
        <mxCell id="Tb7KvKbCH8r8d90aHwrI-21" value="Mesh" style="rounded=0;whiteSpace=wrap;html=1;fillColor=#f8cecc;strokeColor=#b85450;" parent="1" vertex="1">
          <mxGeometry y="330" width="165" height="70" as="geometry" />
        </mxCell>
        <mxCell id="Tb7KvKbCH8r8d90aHwrI-22" style="edgeStyle=none;shape=connector;rounded=0;orthogonalLoop=1;jettySize=auto;html=1;exitX=0.25;exitY=1;exitDx=0;exitDy=0;entryX=0.438;entryY=0.01;entryDx=0;entryDy=0;entryPerimeter=0;labelBackgroundColor=default;strokeColor=default;align=center;verticalAlign=middle;fontFamily=Helvetica;fontSize=11;fontColor=default;endArrow=classic;" parent="1" source="rXm-1U5fzkKB2WTTh2jy-1" target="Tb7KvKbCH8r8d90aHwrI-19" edge="1">
          <mxGeometry relative="1" as="geometry" />
        </mxCell>
        <mxCell id="Tb7KvKbCH8r8d90aHwrI-25" value="MeshShader" style="rounded=0;whiteSpace=wrap;html=1;fillColor=#ffe6cc;strokeColor=#d79b00;" parent="1" vertex="1">
          <mxGeometry x="-940" y="-30" width="165" height="70" as="geometry" />
        </mxCell>
        <mxCell id="Tb7KvKbCH8r8d90aHwrI-26" value="MeshShader" style="rounded=0;whiteSpace=wrap;html=1;fillColor=#fff2cc;strokeColor=#d6b656;" parent="1" vertex="1">
          <mxGeometry x="-584" y="-20" width="165" height="70" as="geometry" />
        </mxCell>
      </root>
    </mxGraphModel>
  </diagram>
  <diagram id="TNceW1RXD9952kncQPxD" name="Page-3">
    <mxGraphModel dx="3559" dy="2150" grid="1" gridSize="10" guides="1" tooltips="1" connect="1" arrows="1" fold="1" page="1" pageScale="1" pageWidth="1169" pageHeight="827" math="0" shadow="0">
      <root>
        <mxCell id="0" />
        <mxCell id="1" parent="0" />
        <mxCell id="eZCGdEbWrYmF6hncZV8b-5" style="rounded=0;orthogonalLoop=1;jettySize=auto;html=1;exitX=0;exitY=0.75;exitDx=0;exitDy=0;entryX=0.5;entryY=0;entryDx=0;entryDy=0;" edge="1" parent="1" source="eZCGdEbWrYmF6hncZV8b-1" target="eZCGdEbWrYmF6hncZV8b-2">
          <mxGeometry relative="1" as="geometry" />
        </mxCell>
        <mxCell id="eZCGdEbWrYmF6hncZV8b-6" style="edgeStyle=none;shape=connector;rounded=0;orthogonalLoop=1;jettySize=auto;html=1;entryX=0.5;entryY=0;entryDx=0;entryDy=0;labelBackgroundColor=default;strokeColor=default;align=center;verticalAlign=middle;fontFamily=Helvetica;fontSize=11;fontColor=default;endArrow=classic;exitX=0.25;exitY=1;exitDx=0;exitDy=0;" edge="1" parent="1" source="eZCGdEbWrYmF6hncZV8b-1" target="eZCGdEbWrYmF6hncZV8b-3">
          <mxGeometry relative="1" as="geometry" />
        </mxCell>
        <mxCell id="eZCGdEbWrYmF6hncZV8b-7" style="edgeStyle=none;shape=connector;rounded=0;orthogonalLoop=1;jettySize=auto;html=1;exitX=0.75;exitY=1;exitDx=0;exitDy=0;entryX=0.5;entryY=0;entryDx=0;entryDy=0;labelBackgroundColor=default;strokeColor=default;align=center;verticalAlign=middle;fontFamily=Helvetica;fontSize=11;fontColor=default;endArrow=classic;" edge="1" parent="1" source="eZCGdEbWrYmF6hncZV8b-1" target="eZCGdEbWrYmF6hncZV8b-4">
          <mxGeometry relative="1" as="geometry" />
        </mxCell>
        <mxCell id="eZCGdEbWrYmF6hncZV8b-74" style="edgeStyle=none;shape=connector;rounded=0;orthogonalLoop=1;jettySize=auto;html=1;exitX=0;exitY=0.25;exitDx=0;exitDy=0;entryX=1;entryY=0.5;entryDx=0;entryDy=0;labelBackgroundColor=default;strokeColor=default;align=center;verticalAlign=middle;fontFamily=Helvetica;fontSize=11;fontColor=default;endArrow=classic;" edge="1" parent="1" source="eZCGdEbWrYmF6hncZV8b-1" target="eZCGdEbWrYmF6hncZV8b-73">
          <mxGeometry relative="1" as="geometry" />
        </mxCell>
        <mxCell id="eZCGdEbWrYmF6hncZV8b-82" style="edgeStyle=none;shape=connector;rounded=0;orthogonalLoop=1;jettySize=auto;html=1;exitX=1;exitY=0.75;exitDx=0;exitDy=0;entryX=0.5;entryY=0;entryDx=0;entryDy=0;labelBackgroundColor=default;strokeColor=default;align=center;verticalAlign=middle;fontFamily=Helvetica;fontSize=11;fontColor=default;endArrow=classic;" edge="1" parent="1" source="eZCGdEbWrYmF6hncZV8b-1" target="eZCGdEbWrYmF6hncZV8b-81">
          <mxGeometry relative="1" as="geometry" />
        </mxCell>
        <mxCell id="eZCGdEbWrYmF6hncZV8b-1" value="RenderPass" style="rounded=0;whiteSpace=wrap;html=1;" vertex="1" parent="1">
          <mxGeometry x="650" y="140" width="120" height="60" as="geometry" />
        </mxCell>
        <mxCell id="eZCGdEbWrYmF6hncZV8b-15" style="edgeStyle=none;shape=connector;rounded=0;orthogonalLoop=1;jettySize=auto;html=1;exitX=0.5;exitY=1;exitDx=0;exitDy=0;entryX=0.5;entryY=0;entryDx=0;entryDy=0;labelBackgroundColor=default;strokeColor=default;align=center;verticalAlign=middle;fontFamily=Helvetica;fontSize=11;fontColor=default;endArrow=classic;" edge="1" parent="1" source="eZCGdEbWrYmF6hncZV8b-81" target="eZCGdEbWrYmF6hncZV8b-14">
          <mxGeometry relative="1" as="geometry" />
        </mxCell>
        <mxCell id="eZCGdEbWrYmF6hncZV8b-85" style="edgeStyle=none;shape=connector;rounded=0;orthogonalLoop=1;jettySize=auto;html=1;exitX=1;exitY=0.5;exitDx=0;exitDy=0;entryX=0;entryY=0.5;entryDx=0;entryDy=0;dashed=1;labelBackgroundColor=default;strokeColor=default;align=center;verticalAlign=middle;fontFamily=Helvetica;fontSize=11;fontColor=default;endArrow=classic;" edge="1" parent="1" source="eZCGdEbWrYmF6hncZV8b-2" target="eZCGdEbWrYmF6hncZV8b-3">
          <mxGeometry relative="1" as="geometry" />
        </mxCell>
        <mxCell id="eZCGdEbWrYmF6hncZV8b-2" value="Subpass#0" style="rounded=0;whiteSpace=wrap;html=1;" vertex="1" parent="1">
          <mxGeometry x="390" y="330" width="120" height="60" as="geometry" />
        </mxCell>
        <mxCell id="eZCGdEbWrYmF6hncZV8b-11" style="edgeStyle=none;shape=connector;rounded=0;orthogonalLoop=1;jettySize=auto;html=1;exitX=0;exitY=0.75;exitDx=0;exitDy=0;entryX=0.5;entryY=0;entryDx=0;entryDy=0;labelBackgroundColor=default;strokeColor=default;align=center;verticalAlign=middle;fontFamily=Helvetica;fontSize=11;fontColor=default;endArrow=classic;" edge="1" parent="1" source="eZCGdEbWrYmF6hncZV8b-2" target="eZCGdEbWrYmF6hncZV8b-8">
          <mxGeometry relative="1" as="geometry" />
        </mxCell>
        <mxCell id="eZCGdEbWrYmF6hncZV8b-12" style="edgeStyle=none;shape=connector;rounded=0;orthogonalLoop=1;jettySize=auto;html=1;exitX=0.5;exitY=1;exitDx=0;exitDy=0;entryX=0.5;entryY=0;entryDx=0;entryDy=0;labelBackgroundColor=default;strokeColor=default;align=center;verticalAlign=middle;fontFamily=Helvetica;fontSize=11;fontColor=default;endArrow=classic;" edge="1" parent="1" source="eZCGdEbWrYmF6hncZV8b-3" target="eZCGdEbWrYmF6hncZV8b-9">
          <mxGeometry relative="1" as="geometry" />
        </mxCell>
        <mxCell id="eZCGdEbWrYmF6hncZV8b-13" style="edgeStyle=none;shape=connector;rounded=0;orthogonalLoop=1;jettySize=auto;html=1;entryX=0.5;entryY=0;entryDx=0;entryDy=0;labelBackgroundColor=default;strokeColor=default;align=center;verticalAlign=middle;fontFamily=Helvetica;fontSize=11;fontColor=default;endArrow=classic;exitX=0.5;exitY=1;exitDx=0;exitDy=0;" edge="1" parent="1" source="eZCGdEbWrYmF6hncZV8b-4" target="eZCGdEbWrYmF6hncZV8b-10">
          <mxGeometry relative="1" as="geometry">
            <mxPoint x="480" y="390" as="sourcePoint" />
          </mxGeometry>
        </mxCell>
        <mxCell id="eZCGdEbWrYmF6hncZV8b-86" style="edgeStyle=none;shape=connector;rounded=0;orthogonalLoop=1;jettySize=auto;html=1;exitX=1;exitY=0.75;exitDx=0;exitDy=0;entryX=0;entryY=0.25;entryDx=0;entryDy=0;dashed=1;labelBackgroundColor=default;strokeColor=default;align=center;verticalAlign=middle;fontFamily=Helvetica;fontSize=11;fontColor=default;endArrow=classic;" edge="1" parent="1" source="eZCGdEbWrYmF6hncZV8b-3" target="eZCGdEbWrYmF6hncZV8b-81">
          <mxGeometry relative="1" as="geometry" />
        </mxCell>
        <mxCell id="eZCGdEbWrYmF6hncZV8b-3" value="Subpass#1" style="rounded=0;whiteSpace=wrap;html=1;" vertex="1" parent="1">
          <mxGeometry x="584" y="380" width="120" height="60" as="geometry" />
        </mxCell>
        <mxCell id="eZCGdEbWrYmF6hncZV8b-87" style="edgeStyle=none;shape=connector;rounded=0;orthogonalLoop=1;jettySize=auto;html=1;exitX=1;exitY=0.75;exitDx=0;exitDy=0;entryX=0;entryY=0.75;entryDx=0;entryDy=0;dashed=1;labelBackgroundColor=default;strokeColor=default;align=center;verticalAlign=middle;fontFamily=Helvetica;fontSize=11;fontColor=default;endArrow=classic;" edge="1" parent="1" source="eZCGdEbWrYmF6hncZV8b-4" target="eZCGdEbWrYmF6hncZV8b-81">
          <mxGeometry relative="1" as="geometry" />
        </mxCell>
        <mxCell id="eZCGdEbWrYmF6hncZV8b-4" value="Subpass#2" style="rounded=0;whiteSpace=wrap;html=1;" vertex="1" parent="1">
          <mxGeometry x="770" y="490" width="120" height="60" as="geometry" />
        </mxCell>
        <mxCell id="eZCGdEbWrYmF6hncZV8b-8" value="&lt;div&gt;Shader#0&lt;/div&gt;&lt;div&gt;(mesh-&amp;gt;solid)&lt;/div&gt;" style="rounded=0;whiteSpace=wrap;html=1;" vertex="1" parent="1">
          <mxGeometry x="80" y="520" width="120" height="60" as="geometry" />
        </mxCell>
        <mxCell id="eZCGdEbWrYmF6hncZV8b-9" value="&lt;div&gt;Shader#1&lt;/div&gt;&lt;div&gt;(vis-&amp;gt;solid)&lt;/div&gt;" style="rounded=0;whiteSpace=wrap;html=1;" vertex="1" parent="1">
          <mxGeometry x="510" y="620" width="120" height="60" as="geometry" />
        </mxCell>
        <mxCell id="eZCGdEbWrYmF6hncZV8b-10" value="&lt;div&gt;Shader#2&lt;br&gt;(mesh-&amp;gt;transparent)&lt;br&gt;&lt;/div&gt;" style="rounded=0;whiteSpace=wrap;html=1;" vertex="1" parent="1">
          <mxGeometry x="750" y="677" width="120" height="60" as="geometry" />
        </mxCell>
        <mxCell id="eZCGdEbWrYmF6hncZV8b-14" value="Shader#3&lt;br&gt;(vis-&amp;gt;transparent)" style="rounded=0;whiteSpace=wrap;html=1;" vertex="1" parent="1">
          <mxGeometry x="1070" y="650" width="120" height="60" as="geometry" />
        </mxCell>
        <mxCell id="eZCGdEbWrYmF6hncZV8b-46" style="edgeStyle=none;shape=connector;rounded=0;orthogonalLoop=1;jettySize=auto;html=1;exitX=0.25;exitY=1;exitDx=0;exitDy=0;entryX=0.5;entryY=0;entryDx=0;entryDy=0;labelBackgroundColor=default;strokeColor=default;align=center;verticalAlign=middle;fontFamily=Helvetica;fontSize=11;fontColor=default;endArrow=classic;" edge="1" parent="1" source="eZCGdEbWrYmF6hncZV8b-20" target="eZCGdEbWrYmF6hncZV8b-40">
          <mxGeometry relative="1" as="geometry" />
        </mxCell>
        <mxCell id="eZCGdEbWrYmF6hncZV8b-47" style="edgeStyle=none;shape=connector;rounded=0;orthogonalLoop=1;jettySize=auto;html=1;exitX=0.75;exitY=1;exitDx=0;exitDy=0;entryX=0.5;entryY=0;entryDx=0;entryDy=0;labelBackgroundColor=default;strokeColor=default;align=center;verticalAlign=middle;fontFamily=Helvetica;fontSize=11;fontColor=default;endArrow=classic;" edge="1" parent="1" source="eZCGdEbWrYmF6hncZV8b-20" target="eZCGdEbWrYmF6hncZV8b-41">
          <mxGeometry relative="1" as="geometry" />
        </mxCell>
        <mxCell id="eZCGdEbWrYmF6hncZV8b-20" value="Material#0" style="rounded=0;whiteSpace=wrap;html=1;" vertex="1" parent="1">
          <mxGeometry x="-200" y="1130" width="120" height="60" as="geometry" />
        </mxCell>
        <mxCell id="eZCGdEbWrYmF6hncZV8b-24" style="edgeStyle=none;shape=connector;rounded=0;orthogonalLoop=1;jettySize=auto;html=1;exitX=0.5;exitY=0;exitDx=0;exitDy=0;entryX=0.5;entryY=1;entryDx=0;entryDy=0;dashed=1;labelBackgroundColor=default;strokeColor=default;align=center;verticalAlign=middle;fontFamily=Helvetica;fontSize=11;fontColor=default;endArrow=classic;dashPattern=12 12;" edge="1" parent="1" source="eZCGdEbWrYmF6hncZV8b-21" target="eZCGdEbWrYmF6hncZV8b-8">
          <mxGeometry relative="1" as="geometry" />
        </mxCell>
        <mxCell id="eZCGdEbWrYmF6hncZV8b-28" style="edgeStyle=none;shape=connector;rounded=0;orthogonalLoop=1;jettySize=auto;html=1;exitX=0.25;exitY=1;exitDx=0;exitDy=0;entryX=0.5;entryY=0;entryDx=0;entryDy=0;labelBackgroundColor=default;strokeColor=default;align=center;verticalAlign=middle;fontFamily=Helvetica;fontSize=11;fontColor=default;endArrow=classic;" edge="1" parent="1" source="eZCGdEbWrYmF6hncZV8b-21" target="eZCGdEbWrYmF6hncZV8b-20">
          <mxGeometry relative="1" as="geometry" />
        </mxCell>
        <mxCell id="eZCGdEbWrYmF6hncZV8b-29" style="edgeStyle=none;shape=connector;rounded=0;orthogonalLoop=1;jettySize=auto;html=1;exitX=0.5;exitY=1;exitDx=0;exitDy=0;entryX=0.5;entryY=0;entryDx=0;entryDy=0;labelBackgroundColor=default;strokeColor=default;align=center;verticalAlign=middle;fontFamily=Helvetica;fontSize=11;fontColor=default;endArrow=classic;" edge="1" parent="1" source="eZCGdEbWrYmF6hncZV8b-21" target="eZCGdEbWrYmF6hncZV8b-26">
          <mxGeometry relative="1" as="geometry" />
        </mxCell>
        <mxCell id="eZCGdEbWrYmF6hncZV8b-30" style="edgeStyle=none;shape=connector;rounded=0;orthogonalLoop=1;jettySize=auto;html=1;exitX=0.75;exitY=1;exitDx=0;exitDy=0;entryX=0.5;entryY=0;entryDx=0;entryDy=0;labelBackgroundColor=default;strokeColor=default;align=center;verticalAlign=middle;fontFamily=Helvetica;fontSize=11;fontColor=default;endArrow=classic;" edge="1" parent="1" source="eZCGdEbWrYmF6hncZV8b-21" target="eZCGdEbWrYmF6hncZV8b-27">
          <mxGeometry relative="1" as="geometry" />
        </mxCell>
        <mxCell id="eZCGdEbWrYmF6hncZV8b-21" value="MeshShaderRef#0" style="rounded=0;whiteSpace=wrap;html=1;" vertex="1" parent="1">
          <mxGeometry x="40" y="920" width="120" height="60" as="geometry" />
        </mxCell>
        <mxCell id="eZCGdEbWrYmF6hncZV8b-25" style="edgeStyle=none;shape=connector;rounded=0;orthogonalLoop=1;jettySize=auto;html=1;exitX=0.5;exitY=0;exitDx=0;exitDy=0;entryX=0.5;entryY=1;entryDx=0;entryDy=0;dashed=1;dashPattern=12 12;labelBackgroundColor=default;strokeColor=default;align=center;verticalAlign=middle;fontFamily=Helvetica;fontSize=11;fontColor=default;endArrow=classic;" edge="1" parent="1" source="eZCGdEbWrYmF6hncZV8b-23" target="eZCGdEbWrYmF6hncZV8b-10">
          <mxGeometry relative="1" as="geometry" />
        </mxCell>
        <mxCell id="eZCGdEbWrYmF6hncZV8b-23" value="MeshShaderRef#1" style="rounded=0;whiteSpace=wrap;html=1;" vertex="1" parent="1">
          <mxGeometry x="560" y="920" width="120" height="60" as="geometry" />
        </mxCell>
        <mxCell id="eZCGdEbWrYmF6hncZV8b-26" value="Material#1" style="rounded=0;whiteSpace=wrap;html=1;" vertex="1" parent="1">
          <mxGeometry x="40" y="1190" width="120" height="60" as="geometry" />
        </mxCell>
        <mxCell id="eZCGdEbWrYmF6hncZV8b-27" value="Material#2" style="rounded=0;whiteSpace=wrap;html=1;" vertex="1" parent="1">
          <mxGeometry x="260" y="1150" width="120" height="60" as="geometry" />
        </mxCell>
        <mxCell id="eZCGdEbWrYmF6hncZV8b-33" style="edgeStyle=none;shape=connector;rounded=0;orthogonalLoop=1;jettySize=auto;html=1;exitX=0.25;exitY=1;exitDx=0;exitDy=0;entryX=0.5;entryY=0;entryDx=0;entryDy=0;labelBackgroundColor=default;strokeColor=default;align=center;verticalAlign=middle;fontFamily=Helvetica;fontSize=11;fontColor=default;endArrow=classic;" edge="1" parent="1" source="eZCGdEbWrYmF6hncZV8b-31" target="eZCGdEbWrYmF6hncZV8b-1">
          <mxGeometry relative="1" as="geometry" />
        </mxCell>
        <mxCell id="eZCGdEbWrYmF6hncZV8b-37" style="edgeStyle=none;shape=connector;rounded=0;orthogonalLoop=1;jettySize=auto;html=1;exitX=0.75;exitY=1;exitDx=0;exitDy=0;entryX=0.5;entryY=0;entryDx=0;entryDy=0;labelBackgroundColor=default;strokeColor=default;align=center;verticalAlign=middle;fontFamily=Helvetica;fontSize=11;fontColor=default;endArrow=classic;" edge="1" parent="1" source="eZCGdEbWrYmF6hncZV8b-31" target="eZCGdEbWrYmF6hncZV8b-34">
          <mxGeometry relative="1" as="geometry" />
        </mxCell>
        <mxCell id="eZCGdEbWrYmF6hncZV8b-38" style="edgeStyle=none;shape=connector;rounded=0;orthogonalLoop=1;jettySize=auto;html=1;exitX=1;exitY=0.75;exitDx=0;exitDy=0;entryX=0;entryY=0.5;entryDx=0;entryDy=0;labelBackgroundColor=default;strokeColor=default;align=center;verticalAlign=middle;fontFamily=Helvetica;fontSize=11;fontColor=default;endArrow=classic;" edge="1" parent="1" source="eZCGdEbWrYmF6hncZV8b-31" target="eZCGdEbWrYmF6hncZV8b-35">
          <mxGeometry relative="1" as="geometry" />
        </mxCell>
        <mxCell id="eZCGdEbWrYmF6hncZV8b-39" style="edgeStyle=none;shape=connector;rounded=0;orthogonalLoop=1;jettySize=auto;html=1;exitX=1;exitY=0.25;exitDx=0;exitDy=0;entryX=0;entryY=0.5;entryDx=0;entryDy=0;labelBackgroundColor=default;strokeColor=default;align=center;verticalAlign=middle;fontFamily=Helvetica;fontSize=11;fontColor=default;endArrow=classic;" edge="1" parent="1" source="eZCGdEbWrYmF6hncZV8b-31" target="eZCGdEbWrYmF6hncZV8b-36">
          <mxGeometry relative="1" as="geometry" />
        </mxCell>
        <mxCell id="eZCGdEbWrYmF6hncZV8b-31" value="Render" style="rounded=0;whiteSpace=wrap;html=1;" vertex="1" parent="1">
          <mxGeometry x="870" y="-100" width="120" height="60" as="geometry" />
        </mxCell>
        <mxCell id="eZCGdEbWrYmF6hncZV8b-34" value="MeshBuffer" style="rounded=0;whiteSpace=wrap;html=1;" vertex="1" parent="1">
          <mxGeometry x="1680" y="970" width="120" height="60" as="geometry" />
        </mxCell>
        <mxCell id="eZCGdEbWrYmF6hncZV8b-35" value="UniformBuffer" style="rounded=0;whiteSpace=wrap;html=1;" vertex="1" parent="1">
          <mxGeometry x="1360" y="50" width="120" height="60" as="geometry" />
        </mxCell>
        <mxCell id="eZCGdEbWrYmF6hncZV8b-36" value="TextureBuffer" style="rounded=0;whiteSpace=wrap;html=1;" vertex="1" parent="1">
          <mxGeometry x="1400" y="-40" width="120" height="60" as="geometry" />
        </mxCell>
        <mxCell id="eZCGdEbWrYmF6hncZV8b-45" style="edgeStyle=none;shape=connector;rounded=0;orthogonalLoop=1;jettySize=auto;html=1;exitX=1;exitY=0.5;exitDx=0;exitDy=0;entryX=0;entryY=0.75;entryDx=0;entryDy=0;dashed=1;dashPattern=12 12;labelBackgroundColor=default;strokeColor=default;align=center;verticalAlign=middle;fontFamily=Helvetica;fontSize=11;fontColor=default;endArrow=classic;" edge="1" parent="1" source="eZCGdEbWrYmF6hncZV8b-40" target="eZCGdEbWrYmF6hncZV8b-34">
          <mxGeometry relative="1" as="geometry" />
        </mxCell>
        <mxCell id="eZCGdEbWrYmF6hncZV8b-56" style="edgeStyle=none;shape=connector;rounded=0;orthogonalLoop=1;jettySize=auto;html=1;exitX=0;exitY=0.75;exitDx=0;exitDy=0;entryX=0.5;entryY=0;entryDx=0;entryDy=0;labelBackgroundColor=default;strokeColor=default;align=center;verticalAlign=middle;fontFamily=Helvetica;fontSize=11;fontColor=default;endArrow=classic;" edge="1" parent="1" source="eZCGdEbWrYmF6hncZV8b-40" target="eZCGdEbWrYmF6hncZV8b-52">
          <mxGeometry relative="1" as="geometry" />
        </mxCell>
        <mxCell id="eZCGdEbWrYmF6hncZV8b-57" style="edgeStyle=none;shape=connector;rounded=0;orthogonalLoop=1;jettySize=auto;html=1;exitX=0.25;exitY=1;exitDx=0;exitDy=0;entryX=0.5;entryY=0;entryDx=0;entryDy=0;labelBackgroundColor=default;strokeColor=default;align=center;verticalAlign=middle;fontFamily=Helvetica;fontSize=11;fontColor=default;endArrow=classic;" edge="1" parent="1" source="eZCGdEbWrYmF6hncZV8b-40" target="eZCGdEbWrYmF6hncZV8b-53">
          <mxGeometry relative="1" as="geometry" />
        </mxCell>
        <mxCell id="eZCGdEbWrYmF6hncZV8b-58" style="edgeStyle=none;shape=connector;rounded=0;orthogonalLoop=1;jettySize=auto;html=1;exitX=0.75;exitY=1;exitDx=0;exitDy=0;entryX=0.5;entryY=0;entryDx=0;entryDy=0;labelBackgroundColor=default;strokeColor=default;align=center;verticalAlign=middle;fontFamily=Helvetica;fontSize=11;fontColor=default;endArrow=classic;" edge="1" parent="1" source="eZCGdEbWrYmF6hncZV8b-40" target="eZCGdEbWrYmF6hncZV8b-54">
          <mxGeometry relative="1" as="geometry" />
        </mxCell>
        <mxCell id="eZCGdEbWrYmF6hncZV8b-59" style="edgeStyle=none;shape=connector;rounded=0;orthogonalLoop=1;jettySize=auto;html=1;exitX=1;exitY=0.75;exitDx=0;exitDy=0;entryX=0.5;entryY=0;entryDx=0;entryDy=0;labelBackgroundColor=default;strokeColor=default;align=center;verticalAlign=middle;fontFamily=Helvetica;fontSize=11;fontColor=default;endArrow=classic;" edge="1" parent="1" source="eZCGdEbWrYmF6hncZV8b-40" target="eZCGdEbWrYmF6hncZV8b-55">
          <mxGeometry relative="1" as="geometry" />
        </mxCell>
        <mxCell id="eZCGdEbWrYmF6hncZV8b-40" value="MeshRef#0" style="rounded=0;whiteSpace=wrap;html=1;" vertex="1" parent="1">
          <mxGeometry x="-320" y="1430" width="120" height="60" as="geometry" />
        </mxCell>
        <mxCell id="eZCGdEbWrYmF6hncZV8b-44" style="edgeStyle=none;shape=connector;rounded=0;orthogonalLoop=1;jettySize=auto;html=1;exitX=1;exitY=0.5;exitDx=0;exitDy=0;entryX=0.5;entryY=1;entryDx=0;entryDy=0;dashed=1;dashPattern=12 12;labelBackgroundColor=default;strokeColor=default;align=center;verticalAlign=middle;fontFamily=Helvetica;fontSize=11;fontColor=default;endArrow=classic;" edge="1" parent="1" source="eZCGdEbWrYmF6hncZV8b-41" target="eZCGdEbWrYmF6hncZV8b-34">
          <mxGeometry relative="1" as="geometry" />
        </mxCell>
        <mxCell id="eZCGdEbWrYmF6hncZV8b-41" value="MeshRef#1" style="rounded=0;whiteSpace=wrap;html=1;" vertex="1" parent="1">
          <mxGeometry x="-70" y="1530" width="120" height="60" as="geometry" />
        </mxCell>
        <mxCell id="eZCGdEbWrYmF6hncZV8b-50" style="edgeStyle=none;shape=connector;rounded=0;orthogonalLoop=1;jettySize=auto;html=1;exitX=0.5;exitY=1;exitDx=0;exitDy=0;entryX=0.25;entryY=0;entryDx=0;entryDy=0;labelBackgroundColor=default;strokeColor=default;align=center;verticalAlign=middle;fontFamily=Helvetica;fontSize=11;fontColor=default;endArrow=classic;" edge="1" parent="1" source="eZCGdEbWrYmF6hncZV8b-49" target="eZCGdEbWrYmF6hncZV8b-21">
          <mxGeometry relative="1" as="geometry" />
        </mxCell>
        <mxCell id="eZCGdEbWrYmF6hncZV8b-51" style="edgeStyle=none;shape=connector;rounded=0;orthogonalLoop=1;jettySize=auto;html=1;exitX=1;exitY=0.5;exitDx=0;exitDy=0;entryX=0.25;entryY=0;entryDx=0;entryDy=0;labelBackgroundColor=default;strokeColor=default;align=center;verticalAlign=middle;fontFamily=Helvetica;fontSize=11;fontColor=default;endArrow=classic;" edge="1" parent="1" source="eZCGdEbWrYmF6hncZV8b-49" target="eZCGdEbWrYmF6hncZV8b-23">
          <mxGeometry relative="1" as="geometry" />
        </mxCell>
        <mxCell id="eZCGdEbWrYmF6hncZV8b-63" style="edgeStyle=none;shape=connector;rounded=0;orthogonalLoop=1;jettySize=auto;html=1;exitX=0;exitY=0.5;exitDx=0;exitDy=0;entryX=0.5;entryY=0;entryDx=0;entryDy=0;labelBackgroundColor=default;strokeColor=default;align=center;verticalAlign=middle;fontFamily=Helvetica;fontSize=11;fontColor=default;endArrow=classic;" edge="1" parent="1" source="eZCGdEbWrYmF6hncZV8b-49" target="eZCGdEbWrYmF6hncZV8b-62">
          <mxGeometry relative="1" as="geometry" />
        </mxCell>
        <mxCell id="eZCGdEbWrYmF6hncZV8b-49" value="Scene" style="rounded=0;whiteSpace=wrap;html=1;" vertex="1" parent="1">
          <mxGeometry x="-130" y="640" width="120" height="60" as="geometry" />
        </mxCell>
        <mxCell id="eZCGdEbWrYmF6hncZV8b-69" style="edgeStyle=none;shape=connector;rounded=0;orthogonalLoop=1;jettySize=auto;html=1;exitX=0.25;exitY=0;exitDx=0;exitDy=0;entryX=0.059;entryY=1;entryDx=0;entryDy=0;dashed=1;dashPattern=12 12;labelBackgroundColor=default;strokeColor=default;align=center;verticalAlign=middle;fontFamily=Helvetica;fontSize=11;fontColor=default;endArrow=classic;entryPerimeter=0;" edge="1" parent="1" source="eZCGdEbWrYmF6hncZV8b-52" target="eZCGdEbWrYmF6hncZV8b-67">
          <mxGeometry relative="1" as="geometry" />
        </mxCell>
        <mxCell id="eZCGdEbWrYmF6hncZV8b-52" value="Instance#0" style="rounded=0;whiteSpace=wrap;html=1;" vertex="1" parent="1">
          <mxGeometry x="-530" y="1660" width="120" height="60" as="geometry" />
        </mxCell>
        <mxCell id="eZCGdEbWrYmF6hncZV8b-70" style="edgeStyle=none;shape=connector;rounded=0;orthogonalLoop=1;jettySize=auto;html=1;exitX=0.25;exitY=0;exitDx=0;exitDy=0;entryX=0.25;entryY=1;entryDx=0;entryDy=0;dashed=1;dashPattern=12 12;labelBackgroundColor=default;strokeColor=default;align=center;verticalAlign=middle;fontFamily=Helvetica;fontSize=11;fontColor=default;endArrow=classic;" edge="1" parent="1" source="eZCGdEbWrYmF6hncZV8b-53" target="eZCGdEbWrYmF6hncZV8b-67">
          <mxGeometry relative="1" as="geometry" />
        </mxCell>
        <mxCell id="eZCGdEbWrYmF6hncZV8b-53" value="Instance#1" style="rounded=0;whiteSpace=wrap;html=1;" vertex="1" parent="1">
          <mxGeometry x="-410" y="1760" width="120" height="60" as="geometry" />
        </mxCell>
        <mxCell id="eZCGdEbWrYmF6hncZV8b-71" style="edgeStyle=none;shape=connector;rounded=0;orthogonalLoop=1;jettySize=auto;html=1;exitX=0.25;exitY=0;exitDx=0;exitDy=0;entryX=0.5;entryY=1;entryDx=0;entryDy=0;dashed=1;dashPattern=12 12;labelBackgroundColor=default;strokeColor=default;align=center;verticalAlign=middle;fontFamily=Helvetica;fontSize=11;fontColor=default;endArrow=classic;" edge="1" parent="1" source="eZCGdEbWrYmF6hncZV8b-54" target="eZCGdEbWrYmF6hncZV8b-67">
          <mxGeometry relative="1" as="geometry" />
        </mxCell>
        <mxCell id="eZCGdEbWrYmF6hncZV8b-54" value="Instance#2" style="rounded=0;whiteSpace=wrap;html=1;" vertex="1" parent="1">
          <mxGeometry x="-250" y="1760" width="120" height="60" as="geometry" />
        </mxCell>
        <mxCell id="eZCGdEbWrYmF6hncZV8b-72" style="edgeStyle=none;shape=connector;rounded=0;orthogonalLoop=1;jettySize=auto;html=1;exitX=0.75;exitY=0;exitDx=0;exitDy=0;entryX=1;entryY=0.5;entryDx=0;entryDy=0;dashed=1;dashPattern=12 12;labelBackgroundColor=default;strokeColor=default;align=center;verticalAlign=middle;fontFamily=Helvetica;fontSize=11;fontColor=default;endArrow=classic;" edge="1" parent="1" source="eZCGdEbWrYmF6hncZV8b-55" target="eZCGdEbWrYmF6hncZV8b-67">
          <mxGeometry relative="1" as="geometry" />
        </mxCell>
        <mxCell id="eZCGdEbWrYmF6hncZV8b-55" value="Instance#4" style="rounded=0;whiteSpace=wrap;html=1;" vertex="1" parent="1">
          <mxGeometry x="-130" y="1660" width="120" height="60" as="geometry" />
        </mxCell>
        <mxCell id="eZCGdEbWrYmF6hncZV8b-60" value="UniformInstanceIndexBuffer#0" style="rounded=0;whiteSpace=wrap;html=1;" vertex="1" parent="1">
          <mxGeometry x="-1060" y="890" width="210" height="90" as="geometry" />
        </mxCell>
        <mxCell id="eZCGdEbWrYmF6hncZV8b-61" value="UniformInstanceIndexBuffer#1" style="rounded=0;whiteSpace=wrap;html=1;" vertex="1" parent="1">
          <mxGeometry x="-794" y="955" width="210" height="90" as="geometry" />
        </mxCell>
        <mxCell id="eZCGdEbWrYmF6hncZV8b-64" style="edgeStyle=none;shape=connector;rounded=0;orthogonalLoop=1;jettySize=auto;html=1;exitX=0;exitY=0.25;exitDx=0;exitDy=0;entryX=0.5;entryY=0;entryDx=0;entryDy=0;labelBackgroundColor=default;strokeColor=default;align=center;verticalAlign=middle;fontFamily=Helvetica;fontSize=11;fontColor=default;endArrow=classic;" edge="1" parent="1" source="eZCGdEbWrYmF6hncZV8b-62" target="eZCGdEbWrYmF6hncZV8b-60">
          <mxGeometry relative="1" as="geometry" />
        </mxCell>
        <mxCell id="eZCGdEbWrYmF6hncZV8b-65" style="edgeStyle=none;shape=connector;rounded=0;orthogonalLoop=1;jettySize=auto;html=1;exitX=0.25;exitY=1;exitDx=0;exitDy=0;entryX=0.5;entryY=0;entryDx=0;entryDy=0;labelBackgroundColor=default;strokeColor=default;align=center;verticalAlign=middle;fontFamily=Helvetica;fontSize=11;fontColor=default;endArrow=classic;" edge="1" parent="1" source="eZCGdEbWrYmF6hncZV8b-62" target="eZCGdEbWrYmF6hncZV8b-61">
          <mxGeometry relative="1" as="geometry" />
        </mxCell>
        <mxCell id="eZCGdEbWrYmF6hncZV8b-68" style="edgeStyle=none;shape=connector;rounded=0;orthogonalLoop=1;jettySize=auto;html=1;exitX=0.5;exitY=1;exitDx=0;exitDy=0;entryX=0.5;entryY=0;entryDx=0;entryDy=0;labelBackgroundColor=default;strokeColor=default;align=center;verticalAlign=middle;fontFamily=Helvetica;fontSize=11;fontColor=default;endArrow=classic;" edge="1" parent="1" source="eZCGdEbWrYmF6hncZV8b-62" target="eZCGdEbWrYmF6hncZV8b-67">
          <mxGeometry relative="1" as="geometry" />
        </mxCell>
        <mxCell id="eZCGdEbWrYmF6hncZV8b-62" value="UniformInstanceIndexBuffersHub" style="rounded=0;whiteSpace=wrap;html=1;" vertex="1" parent="1">
          <mxGeometry x="-500" y="737" width="210" height="90" as="geometry" />
        </mxCell>
        <mxCell id="eZCGdEbWrYmF6hncZV8b-67" value="UniformInstanceIndexAllocator" style="rounded=0;whiteSpace=wrap;html=1;" vertex="1" parent="1">
          <mxGeometry x="-560" y="1100" width="210" height="90" as="geometry" />
        </mxCell>
        <mxCell id="eZCGdEbWrYmF6hncZV8b-78" style="edgeStyle=none;shape=connector;rounded=0;orthogonalLoop=1;jettySize=auto;html=1;exitX=0.25;exitY=1;exitDx=0;exitDy=0;entryX=0.5;entryY=0;entryDx=0;entryDy=0;labelBackgroundColor=default;strokeColor=default;align=center;verticalAlign=middle;fontFamily=Helvetica;fontSize=11;fontColor=default;endArrow=classic;" edge="1" parent="1" source="eZCGdEbWrYmF6hncZV8b-73" target="eZCGdEbWrYmF6hncZV8b-75">
          <mxGeometry relative="1" as="geometry" />
        </mxCell>
        <mxCell id="eZCGdEbWrYmF6hncZV8b-79" style="edgeStyle=none;shape=connector;rounded=0;orthogonalLoop=1;jettySize=auto;html=1;exitX=0.75;exitY=1;exitDx=0;exitDy=0;entryX=0.5;entryY=0;entryDx=0;entryDy=0;labelBackgroundColor=default;strokeColor=default;align=center;verticalAlign=middle;fontFamily=Helvetica;fontSize=11;fontColor=default;endArrow=classic;" edge="1" parent="1" source="eZCGdEbWrYmF6hncZV8b-73" target="eZCGdEbWrYmF6hncZV8b-77">
          <mxGeometry relative="1" as="geometry" />
        </mxCell>
        <mxCell id="eZCGdEbWrYmF6hncZV8b-73" value="Images" style="rounded=0;whiteSpace=wrap;html=1;" vertex="1" parent="1">
          <mxGeometry x="280" y="-60" width="120" height="60" as="geometry" />
        </mxCell>
        <mxCell id="eZCGdEbWrYmF6hncZV8b-75" value="Image#0" style="rounded=0;whiteSpace=wrap;html=1;" vertex="1" parent="1">
          <mxGeometry x="121" y="130" width="120" height="60" as="geometry" />
        </mxCell>
        <mxCell id="eZCGdEbWrYmF6hncZV8b-77" value="Image#1" style="rounded=0;whiteSpace=wrap;html=1;" vertex="1" parent="1">
          <mxGeometry x="340" y="130" width="120" height="60" as="geometry" />
        </mxCell>
        <mxCell id="eZCGdEbWrYmF6hncZV8b-81" value="Subpass#3" style="rounded=0;whiteSpace=wrap;html=1;" vertex="1" parent="1">
          <mxGeometry x="1040" y="480" width="120" height="60" as="geometry" />
        </mxCell>
      </root>
    </mxGraphModel>
  </diagram>
</mxfile>
